<svg width="44" height="44" viewBox="0 0 44 44" fill="none" xmlns="http://www.w3.org/2000/svg">
<path d="M42.6845 1.22348C41.0515 -0.407827 38.3299 -0.407827 36.6969 1.22348L22 15.9959L7.21237 1.22348C5.57938 -0.407827 2.85773 -0.407827 1.22474 1.22348C-0.408248 2.85479 -0.408248 5.57364 1.22474 7.20495L16.0124 21.9773L1.22474 36.7497C-0.408248 38.3811 -0.408248 41.0999 1.22474 42.7312C2.04124 43.5469 3.1299 44 4.21856 44C5.30722 44 6.39588 43.5469 7.21237 42.7312L22 27.9588L36.7876 42.7312C37.6041 43.5469 38.6928 44 39.7814 44C40.8701 44 41.9588 43.5469 42.7753 42.7312C44.4082 41.0999 44.4082 38.3811 42.7753 36.7497L27.9876 21.9773L42.7753 7.20495C44.4082 5.57364 44.4082 2.85479 42.6845 1.22348Z" fill="black"/>
</svg>
